<svg id="Capa_1" enable-background="new 0 0 512 512" height="512" viewBox="0 0 512 512" width="512" xmlns="http://www.w3.org/2000/svg"><g><g><g><path d="m154.984 208.522h-137.382c-5.579 0-10.102 4.523-10.102 10.102v109.098c0 5.579 4.523 10.102 10.102 10.102h21.213v20.203l35.356-20.203h80.813c5.579 0 10.102-4.523 10.102-10.102v-109.098c-.001-5.579-4.523-10.102-10.102-10.102z" fill="#cbe2ff"/></g><g><path d="m154.984 208.522h-20.204c5.579 0 10.102 4.523 10.102 10.102v109.098c0 5.579-4.523 10.102-10.102 10.102h20.203c5.579 0 10.102-4.523 10.102-10.102v-109.098c0-5.579-4.522-10.102-10.101-10.102z" fill="#bed8fb"/></g></g><g><g><path d="m357.016 196.4h137.382c5.579 0 10.102 4.523 10.102 10.102v109.098c0 5.579-4.523 10.102-10.102 10.102h-21.213v20.203l-35.356-20.203h-80.813c-5.579 0-10.102-4.523-10.102-10.102v-109.098c.001-5.579 4.523-10.102 10.102-10.102z" fill="#e28086"/></g><g><path d="m494.398 325.701h-20.203c5.579 0 10.102-4.523 10.102-10.102v-109.097c0-5.579-4.523-10.102-10.102-10.102h20.203c5.579 0 10.102 4.523 10.102 10.102v109.098c0 5.579-4.523 10.101-10.102 10.101z" fill="#dd636e"/></g></g><g><g><path d="m326.711 7.5h167.687c5.579 0 10.102 4.523 10.102 10.102v109.098c0 5.579-4.523 10.102-10.102 10.102h-21.213v20.203l-35.356-20.203h-111.118c-5.579 0-10.102-4.523-10.102-10.102v-109.098c.001-5.579 4.523-10.102 10.102-10.102z" fill="#ffe07d"/></g><g><path d="m494.398 136.801h-20.203c5.579 0 10.102-4.523 10.102-10.102v-109.097c0-5.579-4.523-10.102-10.102-10.102h20.203c5.579 0 10.102 4.523 10.102 10.102v109.098c0 5.578-4.523 10.101-10.102 10.101z" fill="#ffd064"/></g></g><g><g><path d="m185.289 7.5h-167.687c-5.579 0-10.102 4.523-10.102 10.102v109.098c0 5.579 4.523 10.102 10.102 10.102h21.213v20.203l35.356-20.203h111.118c5.579 0 10.102-4.523 10.102-10.102v-109.098c-.001-5.579-4.523-10.102-10.102-10.102z" fill="#9bd069"/></g><g><path d="m185.289 7.5h-20.203c5.579 0 10.102 4.523 10.102 10.102v109.098c0 5.579-4.523 10.102-10.102 10.102h20.203c5.579 0 10.102-4.523 10.102-10.102v-109.098c-.001-5.579-4.523-10.102-10.102-10.102z" fill="#7dbe3b"/></g></g><g><g><path d="m282.264 350.955 60.554 16.231c22.079 5.918 37.431 25.927 37.431 48.786v23.877h-248.5v-23.877c0-22.859 15.352-42.868 37.431-48.786l60.554-16.231z" fill="#f6f9f9"/></g><g><path d="m229.736 350.955-30.931 8.291 14.768 50.299 42.427-32.325v-26.265z" fill="#dfeaef"/></g><g><path d="m282.264 350.955 30.931 8.291-14.768 50.299-42.427-32.325v-26.265z" fill="#dfeaef"/></g><g><path d="m350.728 370.028c2.755 6.263 4.268 13.153 4.268 20.324v49.498h25.254v-23.877c0-20.016-11.771-37.846-29.522-45.945z" fill="#f1f4f6"/></g><g><path d="m256 377.22c-14.505 0-26.264-11.759-26.264-26.264v-32.326h52.528v32.325c0 14.506-11.759 26.265-26.264 26.265z" fill="#f1d0a5"/></g><g><path d="m229.736 339.254c8.198 2.994 17.043 4.63 26.264 4.63s18.067-1.637 26.264-4.63v-20.624h-52.528z" fill="#f1b986"/></g><g><path d="m197.411 208.522v58.589c0 32.358 26.231 58.589 58.589 58.589s58.589-26.231 58.589-58.589v-58.589z" fill="#f1d0a5"/></g><g><path d="m294.386 208.522v78.793c0 10.998-3.037 21.285-8.308 30.078 17.077-10.238 28.511-28.922 28.511-50.281v-58.589h-20.203z" fill="#f1b986"/></g><g><path d="m296.406 228.726h18.183v-39.396c0-12.274-9.95-22.224-22.224-22.224h-16.163v41.417c.001 11.157 9.047 20.203 20.204 20.203z" fill="#544f57"/></g><g><path d="m256 228.726h-58.589v-39.396c0-22.316 18.091-40.407 40.407-40.407h20.203c10.042 0 18.183 8.141 18.183 18.183v41.417c-.001 11.157-9.046 20.203-20.204 20.203z" fill="#665e66"/></g></g><g><path d="m70.13 439.85h371.74v32.325h-371.74z" fill="#665e66"/></g><g><path d="m415.606 439.85h26.264v32.325h-26.264z" fill="#544f57"/></g><g><path d="m84.272 472.175h343.455v32.325h-343.455z" fill="#c19d8e"/></g><g><path d="m132.76 233.348h-92.935c-4.142 0-7.5 3.357-7.5 7.5s3.358 7.5 7.5 7.5h92.935c4.142 0 7.5-3.357 7.5-7.5s-3.358-7.5-7.5-7.5z"/><path d="m140.26 273.173c0-4.143-3.358-7.5-7.5-7.5h-92.935c-4.142 0-7.5 3.357-7.5 7.5s3.358 7.5 7.5 7.5h92.935c4.142 0 7.5-3.358 7.5-7.5z"/><path d="m39.825 297.998c-4.142 0-7.5 3.357-7.5 7.5s3.358 7.5 7.5 7.5h60.61c4.142 0 7.5-3.357 7.5-7.5s-3.358-7.5-7.5-7.5z"/><path d="m154.984 345.323c9.706 0 17.602-7.896 17.602-17.602v-109.097c0-9.705-7.896-17.602-17.602-17.602h-87.198c-4.142 0-7.5 3.357-7.5 7.5s3.358 7.5 7.5 7.5h87.198c1.435 0 2.602 1.167 2.602 2.602v109.098c0 1.435-1.167 2.602-2.602 2.602h-80.813c-1.305 0-2.588.341-3.721.988l-24.135 13.791v-7.279c0-4.143-3.358-7.5-7.5-7.5h-21.213c-1.435 0-2.602-1.167-2.602-2.602v-109.098c0-1.435 1.167-2.602 2.602-2.602h15.042c4.142 0 7.5-3.357 7.5-7.5s-3.358-7.5-7.5-7.5h-15.042c-9.706 0-17.602 7.897-17.602 17.602v109.098c0 9.705 7.896 17.602 17.602 17.602h13.713v12.703c0 2.674 1.423 5.145 3.735 6.486 1.164.676 2.464 1.014 3.765 1.014 1.284 0 2.568-.329 3.721-.988l33.626-19.215h78.822z"/><path d="m472.175 221.226h-92.935c-4.142 0-7.5 3.357-7.5 7.5s3.358 7.5 7.5 7.5h92.935c4.142 0 7.5-3.357 7.5-7.5s-3.358-7.5-7.5-7.5z"/><path d="m472.175 253.551h-92.935c-4.142 0-7.5 3.357-7.5 7.5s3.358 7.5 7.5 7.5h92.935c4.142 0 7.5-3.357 7.5-7.5s-3.358-7.5-7.5-7.5z"/><path d="m472.175 285.876h-60.61c-4.142 0-7.5 3.357-7.5 7.5s3.358 7.5 7.5 7.5h60.61c4.142 0 7.5-3.357 7.5-7.5s-3.358-7.5-7.5-7.5z"/><path d="m494.398 188.9h-85.155c-4.142 0-7.5 3.357-7.5 7.5s3.358 7.5 7.5 7.5h85.155c1.435 0 2.602 1.167 2.602 2.602v109.098c0 1.435-1.167 2.602-2.602 2.602h-21.213c-4.142 0-7.5 3.357-7.5 7.5v7.279l-24.135-13.791c-1.133-.647-2.416-.988-3.721-.988h-80.813c-1.435 0-2.602-1.167-2.602-2.602v-109.098c0-1.435 1.167-2.602 2.602-2.602h17.198c4.142 0 7.5-3.357 7.5-7.5s-3.358-7.5-7.5-7.5h-17.198c-9.706 0-17.602 7.896-17.602 17.602v109.098c0 9.705 7.896 17.602 17.602 17.602h78.821l33.626 19.215c1.153.659 2.438.988 3.721.988 1.3 0 2.601-.338 3.765-1.014 2.312-1.342 3.735-3.813 3.735-6.486v-12.703h13.713c9.706 0 17.602-7.896 17.602-17.602v-109.098c.001-9.705-7.895-17.602-17.601-17.602z"/><path d="m472.175 32.325h-123.24c-4.142 0-7.5 3.357-7.5 7.5s3.358 7.5 7.5 7.5h123.24c4.142 0 7.5-3.357 7.5-7.5s-3.358-7.5-7.5-7.5z"/><path d="m472.175 64.65h-123.24c-4.142 0-7.5 3.357-7.5 7.5s3.358 7.5 7.5 7.5h123.24c4.142 0 7.5-3.357 7.5-7.5s-3.358-7.5-7.5-7.5z"/><path d="m472.175 96.976h-90.915c-4.142 0-7.5 3.357-7.5 7.5s3.358 7.5 7.5 7.5h90.915c4.142 0 7.5-3.357 7.5-7.5s-3.358-7.5-7.5-7.5z"/><path d="m494.398 0h-167.687c-9.706 0-17.602 7.896-17.602 17.602v109.098c0 9.705 7.896 17.602 17.602 17.602h109.126l33.626 19.215c1.153.659 2.438.988 3.721.988 1.3 0 2.601-.338 3.765-1.014 2.312-1.342 3.735-3.813 3.735-6.486v-12.703h13.713c9.706 0 17.602-7.896 17.602-17.602v-109.098c.001-9.706-7.895-17.602-17.601-17.602zm2.602 126.699c0 1.435-1.167 2.602-2.602 2.602h-21.213c-4.142 0-7.5 3.357-7.5 7.5v7.279l-24.135-13.791c-1.133-.647-2.416-.988-3.721-.988h-111.118c-1.435 0-2.602-1.167-2.602-2.602v-109.097c0-1.435 1.167-2.602 2.602-2.602h167.687c1.435 0 2.602 1.167 2.602 2.602z"/><path d="m39.825 47.325h123.24c4.142 0 7.5-3.357 7.5-7.5s-3.358-7.5-7.5-7.5h-123.24c-4.142 0-7.5 3.357-7.5 7.5s3.358 7.5 7.5 7.5z"/><path d="m39.825 79.65h123.24c4.142 0 7.5-3.357 7.5-7.5s-3.358-7.5-7.5-7.5h-123.24c-4.142 0-7.5 3.357-7.5 7.5s3.358 7.5 7.5 7.5z"/><path d="m39.825 111.976h90.915c4.142 0 7.5-3.357 7.5-7.5s-3.358-7.5-7.5-7.5h-90.915c-4.142 0-7.5 3.357-7.5 7.5s3.358 7.5 7.5 7.5z"/><path d="m17.602 144.301h13.713v12.703c0 2.674 1.423 5.145 3.735 6.486 1.164.676 2.464 1.014 3.765 1.014 1.284 0 2.568-.329 3.721-.988l33.626-19.215h109.126c9.706 0 17.602-7.896 17.602-17.602v-109.097c0-9.706-7.896-17.602-17.601-17.602h-167.687c-9.706 0-17.602 7.896-17.602 17.602v109.098c0 9.704 7.896 17.601 17.602 17.601zm-2.602-126.699c0-1.435 1.167-2.602 2.602-2.602h167.687c1.435 0 2.602 1.167 2.602 2.602v109.098c0 1.435-1.167 2.602-2.602 2.602h-111.118c-1.305 0-2.588.341-3.721.988l-24.135 13.79v-7.279c0-4.143-3.358-7.5-7.5-7.5h-21.213c-1.435 0-2.602-1.167-2.602-2.602z"/><path d="m441.87 432.35h-54.12v-16.377c0-26.205-17.678-49.246-42.99-56.03l-54.996-14.742v-21.305c19.339-11.543 32.325-32.672 32.325-56.784v-77.782c0-16.39-13.334-29.724-29.724-29.724h-9.783c-3.217-10.513-13.01-18.183-24.563-18.183h-20.204c-26.416 0-47.906 21.49-47.906 47.906v77.782c0 24.113 12.986 45.241 32.325 56.784v21.305l-54.996 14.742c-25.312 6.784-42.99 29.825-42.99 56.03v16.377h-54.118c-4.142 0-7.5 3.357-7.5 7.5v32.325c0 4.143 3.358 7.5 7.5 7.5h6.643v24.826c0 4.143 3.358 7.5 7.5 7.5s7.5-3.357 7.5-7.5v-24.825h282.763c4.142 0 7.5-3.357 7.5-7.5s-3.358-7.5-7.5-7.5h-296.906v-17.325h356.74v17.325h-24.805c-4.142 0-7.5 3.357-7.5 7.5s3.358 7.5 7.5 7.5h10.662v24.825c0 4.143 3.358 7.5 7.5 7.5s7.5-3.357 7.5-7.5v-24.825h6.643c4.142 0 7.5-3.357 7.5-7.5v-32.325c0-4.143-3.358-7.5-7.5-7.5zm-202.396-51.968-21.775 16.591-9.534-32.471 15.416-4.132c2.489 8.556 8.277 15.718 15.893 20.012zm48.945-20.013 15.416 4.132-9.534 32.471-21.775-16.591c7.616-4.293 13.404-11.455 15.893-20.012zm18.67-171.04v31.896h-10.683c-7.005 0-12.704-5.698-12.704-12.703v-33.917h8.663c8.119 0 14.724 6.606 14.724 14.724zm-102.178 0c0-18.145 14.762-32.906 32.906-32.906h20.204c5.891 0 10.683 4.792 10.683 10.683v41.417c0 7.005-5.699 12.703-12.703 12.703h-51.089v-31.897zm0 77.782v-30.886h51.089c7.962 0 15.145-3.381 20.203-8.777 5.058 5.396 12.241 8.777 20.204 8.777h10.683v30.886c0 28.171-22.918 51.09-51.089 51.09s-51.09-22.919-51.09-51.09zm51.089 66.09c6.518 0 12.812-.963 18.764-2.729v20.483c0 10.347-8.417 18.765-18.764 18.765s-18.764-8.418-18.764-18.765v-20.483c5.952 1.766 12.246 2.729 18.764 2.729zm-116.75 82.772c0-19.43 13.107-36.512 31.874-41.542l22.549-6.044 12.705 43.272c.695 2.368 2.512 4.243 4.858 5.013.765.251 1.554.374 2.338.374 1.621 0 3.222-.525 4.546-1.534l37.88-28.863 37.881 28.862c1.324 1.009 2.924 1.534 4.546 1.534.784 0 1.573-.123 2.338-.374 2.346-.77 4.163-2.645 4.858-5.013l12.705-43.272 22.549 6.044c18.767 5.03 31.874 22.112 31.874 41.542v16.377h-38.539v-12.703c0-4.143-3.358-7.5-7.5-7.5s-7.5 3.357-7.5 7.5v12.703h-126.423v-12.703c0-4.143-3.358-7.5-7.5-7.5s-7.5 3.357-7.5 7.5v12.703h-38.539z"/></g></g></svg>