<svg height="512" viewBox="0 0 512 512" width="512" xmlns="http://www.w3.org/2000/svg"><g><g><g><g><path d="m448 280v192h-384v-192l192-136z" fill="#d8d7da"/><path d="m496 264v48l-240-168-240 168v-48l240-168z" fill="#787680"/></g><path d="m16 472h480v24h-480z" fill="#787680"/></g><path d="m376 180v-28h48v61.6" fill="#91cc04"/><g fill="#78b9eb"><path d="m104 312h96v160h-96z"/><path d="m240 312h168v112h-168z"/></g></g><g><path d="m491.41 318.55a8 8 0 0 0 12.59-6.55v-48a7.978 7.978 0 0 0 -3.41-6.55l-68.59-48.02v-57.43a8 8 0 0 0 -8-8h-48a8 8 0 0 0 -8 8v12.63l-107.41-75.18a8 8 0 0 0 -9.18 0l-240 168a7.978 7.978 0 0 0 -3.41 6.55v48a8 8 0 0 0 12.59 6.55l35.41-24.78v170.23h-40a8 8 0 0 0 -8 8v24a8 8 0 0 0 8 8h480a8 8 0 0 0 8-8v-24a8 8 0 0 0 -8-8h-40v-170.23zm-107.41-158.55h32v38.23l-32-22.4zm104 320v8h-464v-8zm-288-176h-96a8 8 0 0 0 -8 8v152h-24v-181.43l184-128.8 184 128.8v181.43h-232v-152a8 8 0 0 0 -8-8zm-8 16v144h-80v-144zm68.59-182.55a7.99 7.99 0 0 0 -9.18 0l-227.41 159.18v-28.46l232-162.4 232 162.4v28.46z"/><path d="m256 56a24.07 24.07 0 0 0 -20.788 12 8 8 0 0 0 13.856 8 8.007 8.007 0 0 1 13.864 0 8 8 0 1 0 13.856-8 24.07 24.07 0 0 0 -20.788-12z"/><path d="m283.726 64.006a8 8 0 0 0 13.848-8.012 48.014 48.014 0 0 0 -83.148 0 8 8 0 1 0 13.848 8.012 32.017 32.017 0 0 1 55.452 0z"/><path d="m196.556 54.926a8 8 0 0 0 10.93-2.926 56.025 56.025 0 0 1 97.028 0 8 8 0 0 0 13.852-8 72.025 72.025 0 0 0 -124.732 0 8 8 0 0 0 2.922 10.926z"/><path d="m232 312v112a8 8 0 0 0 8 8h168a8 8 0 0 0 8-8v-112a8 8 0 0 0 -8-8h-168a8 8 0 0 0 -8 8zm16 8h152v96h-152z"/><path d="m176 400a8 8 0 0 0 8-8v-16a8 8 0 0 0 -16 0v16a8 8 0 0 0 8 8z"/></g></g></svg>