<svg height="512" viewBox="0 0 512 512" width="512" xmlns="http://www.w3.org/2000/svg"><g><g fill="#57a4ff"><path d="m496 288v-64h-50.67a190.82 190.82 0 0 0 -32.83-79.25l35.83-35.83-45.25-45.25-35.83 35.83a190.82 190.82 0 0 0 -79.25-32.83v-50.67h-64v50.67a190.82 190.82 0 0 0 -79.25 32.83l-35.83-35.83-45.25 45.25 35.83 35.83a190.82 190.82 0 0 0 -32.83 79.25h-50.67v64h50.67a190.82 190.82 0 0 0 32.83 79.25l-35.83 35.83 45.25 45.25 35.83-35.83a190.82 190.82 0 0 0 79.25 32.83v50.67h64v-50.67a190.82 190.82 0 0 0 79.25-32.83l35.83 35.83 45.25-45.25-35.83-35.83a190.82 190.82 0 0 0 32.83-79.25zm-208 116.62-32 3.38a151.862 151.862 0 1 1 32-3.38z"/><path d="m288 404.62a151.987 151.987 0 0 1 -32 3.38z"/></g><g fill="#004fac"><path d="m496 216h-44.02a200.568 200.568 0 0 0 -29.12-70.29l31.13-31.13a8.015 8.015 0 0 0 0-11.32l-45.25-45.25a8.015 8.015 0 0 0 -11.32 0l-31.13 31.13a200.568 200.568 0 0 0 -70.29-29.12v-44.02a8 8 0 0 0 -8-8h-64a8 8 0 0 0 -8 8v44.02a200.568 200.568 0 0 0 -70.29 29.12l-31.13-31.13a8.015 8.015 0 0 0 -11.32 0l-45.25 45.25a8.015 8.015 0 0 0 0 11.32l31.13 31.13a200.568 200.568 0 0 0 -29.12 70.29h-44.02a8 8 0 0 0 -8 8v64a8 8 0 0 0 8 8h44.02a200.568 200.568 0 0 0 29.12 70.29l-31.13 31.13a8.015 8.015 0 0 0 0 11.32l45.25 45.25a8.015 8.015 0 0 0 11.32 0l31.13-31.13a200.568 200.568 0 0 0 70.29 29.12v44.02a8 8 0 0 0 8 8h64a8 8 0 0 0 8-8v-44.02a200.568 200.568 0 0 0 70.29-29.12l31.13 31.13a8.015 8.015 0 0 0 11.32 0l45.25-45.25a8.015 8.015 0 0 0 0-11.32l-31.13-31.13a200.568 200.568 0 0 0 29.12-70.29h44.02a8 8 0 0 0 8-8v-64a8 8 0 0 0 -8-8zm-8 64h-42.67a8 8 0 0 0 -7.89 6.68 184.285 184.285 0 0 1 -31.45 75.93 7.99 7.99 0 0 0 .86 10.3l30.17 30.17-33.94 33.94-30.17-30.17a8 8 0 0 0 -10.3-.86 184.285 184.285 0 0 1 -75.93 31.45 8 8 0 0 0 -6.68 7.89v42.67h-48v-42.67a8 8 0 0 0 -6.68-7.89 184.285 184.285 0 0 1 -75.93-31.45 8 8 0 0 0 -10.3.86l-30.17 30.17-33.94-33.94 30.17-30.17a7.99 7.99 0 0 0 .86-10.3 184.285 184.285 0 0 1 -31.45-75.93 8 8 0 0 0 -7.89-6.68h-42.67v-48h42.67a8 8 0 0 0 7.89-6.68 184.285 184.285 0 0 1 31.45-75.93 7.99 7.99 0 0 0 -.86-10.3l-30.17-30.17 33.94-33.94 30.17 30.17a8 8 0 0 0 10.3.86 184.285 184.285 0 0 1 75.93-31.45 8 8 0 0 0 6.68-7.89v-42.67h48v42.67a8 8 0 0 0 6.68 7.89 184.285 184.285 0 0 1 75.93 31.45 8 8 0 0 0 10.3-.86l30.17-30.17 33.94 33.94-30.17 30.17a7.99 7.99 0 0 0 -.86 10.3 184.285 184.285 0 0 1 31.45 75.93 8 8 0 0 0 7.89 6.68h42.67z"/><path d="m256 96c-88.22 0-160 71.78-160 160a160.123 160.123 0 0 0 193.56 156.47.3.3 0 0 1 .1-.02.035.035 0 0 1 .02-.01 160.042 160.042 0 0 0 126.32-156.44c0-88.22-71.78-160-160-160zm28.44 185.34a8.015 8.015 0 0 0 -4.44 7.17v109.48a146.146 146.146 0 0 1 -43 .76l-.24-.03c-1.08-.15-2.16-.3-3.24-.47-.22-.04-.44-.07-.66-.11-.29-.04-.57-.1-.86-.15v-109.48a8.015 8.015 0 0 0 -4.44-7.17 64.017 64.017 0 0 1 -3.56-112.78v55.44a8.033 8.033 0 0 0 3.56 6.66l24 16a8.013 8.013 0 0 0 8.88 0l24-16a8.033 8.033 0 0 0 3.56-6.66v-55.44a64.017 64.017 0 0 1 -3.56 112.78zm83.09 65.76a144.733 144.733 0 0 1 -71.53 47.26v-101.06a80.027 80.027 0 0 0 -13.33-144.74 8 8 0 0 0 -10.67 7.54v63.62l-16 10.66-16-10.66v-63.62a8 8 0 0 0 -10.67-7.54 80.027 80.027 0 0 0 -13.33 144.74v101.06a144.039 144.039 0 0 1 -104-138.36c0-79.4 64.6-144 144-144s144 64.6 144 144a144.263 144.263 0 0 1 -32.47 91.1z"/><path d="m72 248h-32a8 8 0 0 0 0 16h32a8 8 0 0 0 0-16z"/><path d="m256 344a8 8 0 0 0 8-8v-56a8 8 0 0 0 -16 0v56a8 8 0 0 0 8 8z"/><path d="m256 376a8 8 0 0 0 8-8v-8a8 8 0 0 0 -16 0v8a8 8 0 0 0 8 8z"/></g></g></svg>