<svg height="512pt" viewBox="0 -36 512 512" width="512pt" xmlns="http://www.w3.org/2000/svg"><path d="m163 377.402344c0 29.941406-24.273438 54.214844-54.214844 54.214844-29.9375 0-54.210937-24.273438-54.210937-54.214844s24.273437-54.210938 54.210937-54.210938c29.941406 0 54.214844 24.269532 54.214844 54.210938zm0 0" fill="#787680"/><path d="m452.019531 377.402344c0 29.941406-24.269531 54.214844-54.210937 54.214844s-54.214844-24.273438-54.214844-54.214844 24.273438-54.210938 54.214844-54.210938 54.210937 24.269532 54.210937 54.210938zm0 0" fill="#787680"/><path d="m462.828125 269.972656h-99.65625l-90.171875-85.382812h-162l-103.5 85.382812v86.179688l21.25 21.25h25.824219c0-29.941406 24.273437-54.210938 54.210937-54.210938 29.941406 0 54.214844 24.269532 54.214844 54.210938h180.59375c0-29.941406 24.273438-54.210938 54.214844-54.210938s54.210937 24.269532 54.210937 54.210938h31.230469l21.25-21.25v-44.507813zm0 0" fill="#ff8243"/><path d="m37.5 305.09375h28v37.082031h-28zm0 0" fill="#ed4726"/><path d="m293.042969 209.589844h-70.042969v60.558594h133.996094zm0 0" fill="#ed4726"/><path d="m198 209.589844h-48.019531l-73.410157 60.558594h121.429688zm0 0" fill="#ed4726"/><path d="m449 291.429688v14.832031c4.882812 4.882812 7.617188 7.617187 12.5 12.5h43v-7.117188l-20.214844-20.214843zm0 0" fill="#ffe477"/><path d="m133.773438 377.402344c0 13.800781-11.1875 24.988281-24.988282 24.988281-13.796875 0-24.984375-11.1875-24.984375-24.988281 0-13.800782 11.1875-24.988282 24.984375-24.988282 13.800782 0 24.988282 11.1875 24.988282 24.988282zm0 0" fill="#c6c5ca"/><path d="m422.796875 377.402344c0 13.800781-11.1875 24.988281-24.988281 24.988281-13.800782 0-24.988282-11.1875-24.988282-24.988281 0-13.800782 11.1875-24.988282 24.988282-24.988282 13.800781 0 24.988281 11.1875 24.988281 24.988282zm0 0" fill="#c6c5ca"/><path d="m37.5 356.152344v-86.179688l103.5-85.382812h-30l-103.5 85.382812v86.179688l21.25 21.25h25.824219c0-1.355469.050781-2.699219.148437-4.027344zm0 0" fill="#ed4726"/><path d="m138.785156 323.191406c-5.203125 0-10.234375.730469-15 2.101563 22.648438 6.503906 39.214844 27.371093 39.214844 52.109375h30c0-29.941406-24.273438-54.210938-54.214844-54.210938zm0 0" fill="#ed4726"/><path d="m427.808594 323.191406c-5.203125 0-10.238282.730469-15 2.101563 22.644531 6.503906 39.210937 27.371093 39.210937 52.109375h30c0-29.941406-24.269531-54.210938-54.210937-54.210938zm0 0" fill="#ed4726"/><path d="m7.5 305.09375h28v37.082031h-28zm0 0" fill="#ffb655"/><path d="m193 270.148438h133.996094l-63.953125-60.558594h-70.042969zm0 0" fill="#b3d8f4"/><path d="m168 209.589844h-48.019531l-73.410157 60.558594h121.429688zm0 0" fill="#b3d8f4"/><g fill="#57a4ff"><path d="m252.628906 329.390625c0 7.226563-5.859375 13.085937-13.089844 13.085937-7.226562 0-13.085937-5.859374-13.085937-13.085937s5.859375-13.085937 13.085937-13.085937c7.230469 0 13.089844 5.859374 13.089844 13.085937zm0 0"/><path d="m203.269531 314.144531c0 7.226563-5.859375 13.085938-13.085937 13.085938-7.226563 0-13.085938-5.859375-13.085938-13.085938 0-7.226562 5.859375-13.085937 13.085938-13.085937 7.226562 0 13.085937 5.859375 13.085937 13.085937zm0 0"/><path d="m301.984375 314.144531c0 7.226563-5.859375 13.085938-13.085937 13.085938-7.230469 0-13.089844-5.859375-13.089844-13.085938 0-7.226562 5.859375-13.085937 13.089844-13.085937 7.226562 0 13.085937 5.859375 13.085937 13.085937zm0 0"/><path d="m450.089844 154.589844h-32.6875c0-63.082032-51.320313-114.402344-114.402344-114.402344v-32.6875c81.105469 0 147.089844 65.984375 147.089844 147.089844zm0 0"/><path d="m384.714844 154.589844h-32.683594c0-27.035156-21.996094-49.03125-49.03125-49.03125v-32.6875c45.058594.003906 81.714844 36.660156 81.714844 81.71875zm0 0"/><path d="m319.34375 154.589844c0 9.027344-7.316406 16.34375-16.34375 16.34375s-16.34375-7.316406-16.34375-16.34375 7.316406-16.34375 16.34375-16.34375 16.34375 7.316406 16.34375 16.34375zm0 0"/></g><path d="m84.574219 377.402344c0-24.738282 16.566406-45.601563 39.210937-52.109375-4.761718-1.371094-9.792968-2.101563-15-2.101563-29.9375 0-54.210937 24.269532-54.210937 54.210938s24.273437 54.214844 54.210937 54.214844c5.207032 0 10.238282-.734376 15-2.101563-22.644531-6.507813-39.210937-27.375-39.210937-52.113281zm0 0" fill="#57565c"/><path d="m373.59375 377.402344c0-24.738282 16.570312-45.601563 39.214844-52.109375-4.765625-1.371094-9.796875-2.101563-15-2.101563-29.941406 0-54.214844 24.269532-54.214844 54.210938s24.273438 54.214844 54.214844 54.214844c5.203125 0 10.234375-.734376 15-2.101563-22.644532-6.507813-39.214844-27.375-39.214844-52.113281zm0 0" fill="#57565c"/><path d="m469 306.261719v-14.832031h-20v14.832031c4.882812 4.882812 7.617188 7.617187 12.5 12.5h20c-4.882812-4.882813-7.617188-7.617188-12.5-12.5zm0 0" fill="#ffb655"/><path d="m103.800781 377.402344c0-10.246094 6.164063-19.050782 14.984375-22.90625-3.058594-1.339844-6.441406-2.082032-10-2.082032-13.800781 0-24.984375 11.1875-24.984375 24.988282 0 13.800781 11.1875 24.988281 24.984375 24.988281 3.558594 0 6.941406-.742187 10-2.082031-8.820312-3.855469-14.984375-12.660156-14.984375-22.90625zm0 0" fill="#898890"/><path d="m392.820312 377.402344c0-10.246094 6.164063-19.050782 14.988282-22.90625-3.0625-1.339844-6.445313-2.082032-10-2.082032-13.800782 0-24.988282 11.1875-24.988282 24.988282 0 13.800781 11.1875 24.988281 24.988282 24.988281 3.554687 0 6.9375-.742187 10-2.082031-8.824219-3.855469-14.988282-12.660156-14.988282-22.90625zm0 0" fill="#898890"/><path d="m193 209.589844h30v60.558594h-30zm0 0" fill="#78b9eb"/><path d="m119.980469 209.589844-73.410157 60.558594h30l73.410157-60.558594zm0 0" fill="#78b9eb"/><path d="m323 40.1875v-31.332031c-6.539062-.890625-13.21875-1.355469-20-1.355469v32.6875c63.082031 0 114.402344 51.320312 114.402344 114.402344h20c0-63.082032-51.320313-114.402344-114.402344-114.402344zm0 0" fill="#006df0"/><path d="m323 105.558594v-30.210938c-6.402344-1.617187-13.101562-2.476562-20-2.476562v32.6875c27.035156 0 49.03125 21.996094 49.03125 49.03125h20c0-27.035156-21.996094-49.03125-49.03125-49.03125zm0 0" fill="#006df0"/><path d="m301.65625 154.589844c0-6.324219 3.589844-11.804688 8.84375-14.523438-2.246094-1.164062-4.796875-1.820312-7.5-1.820312-9.027344 0-16.34375 7.316406-16.34375 16.34375s7.316406 16.34375 16.34375 16.34375c2.703125 0 5.253906-.65625 7.5-1.820313-5.253906-2.714843-8.84375-8.199219-8.84375-14.523437zm0 0" fill="#006df0"/><path d="m108.785156 315.691406c-34.027344 0-61.710937 27.683594-61.710937 61.710938 0 34.03125 27.683593 61.714844 61.710937 61.714844 34.03125 0 61.714844-27.683594 61.714844-61.714844 0-34.027344-27.683594-61.710938-61.714844-61.710938zm0 108.425782c-25.753906 0-46.710937-20.957032-46.710937-46.714844 0-25.757813 20.957031-46.710938 46.710937-46.710938 25.757813 0 46.714844 20.953125 46.714844 46.710938 0 25.757812-20.957031 46.714844-46.714844 46.714844zm0 0"/><path d="m397.808594 315.691406c-34.027344 0-61.714844 27.683594-61.714844 61.710938 0 34.03125 27.6875 61.714844 61.714844 61.714844s61.710937-27.683594 61.710937-61.714844c0-34.027344-27.683593-61.710938-61.710937-61.710938zm0 108.425782c-25.757813 0-46.714844-20.957032-46.714844-46.714844 0-25.757813 20.957031-46.710938 46.714844-46.710938 25.757812 0 46.710937 20.953125 46.710937 46.710938 0 25.757812-20.953125 46.714844-46.710937 46.714844zm0 0"/><path d="m108.785156 344.914062c-17.914062 0-32.484375 14.574219-32.484375 32.488282 0 17.914062 14.570313 32.488281 32.484375 32.488281 17.914063 0 32.488282-14.574219 32.488282-32.488281 0-17.914063-14.574219-32.488282-32.488282-32.488282zm0 49.976563c-9.640625 0-17.484375-7.84375-17.484375-17.488281 0-9.644532 7.84375-17.488282 17.484375-17.488282 9.644532 0 17.488282 7.84375 17.488282 17.488282 0 9.644531-7.84375 17.488281-17.488282 17.488281zm0 0"/><path d="m397.808594 344.914062c-17.914063 0-32.488282 14.574219-32.488282 32.488282 0 17.914062 14.574219 32.488281 32.488282 32.488281 17.914062 0 32.488281-14.574219 32.488281-32.488281 0-17.914063-14.574219-32.488282-32.488281-32.488282zm0 49.976563c-9.644532 0-17.488282-7.84375-17.488282-17.488281 0-9.644532 7.84375-17.488282 17.488282-17.488282 9.640625 0 17.488281 7.84375 17.488281 17.488282 0 9.644531-7.847656 17.488281-17.488281 17.488281zm0 0"/><path d="m266.027344 202.089844h-80.527344v75.558594h160.324219zm-65.527344 15h59.554688l48.113281 45.558594h-107.667969zm0 0"/><path d="m175.5 202.089844h-58.214844l-91.589844 75.558594h149.804688zm-15 60.558594h-93.050781l55.226562-45.558594h37.824219zm0 0"/><path d="m296.398438 351.429688v-18.113282c7.652343-3.003906 13.085937-10.464844 13.085937-19.171875 0-11.351562-9.234375-20.585937-20.585937-20.585937-11.351563 0-20.589844 9.234375-20.589844 20.585937 0 8.707031 5.433594 16.167969 13.089844 19.171875v11.898438l-24.6875 24.6875h-9.671876v-21.339844c7.65625-3.003906 13.089844-10.464844 13.089844-19.171875 0-11.351563-9.238281-20.585937-20.589844-20.585937-11.347656 0-20.585937 9.234374-20.585937 20.585937 0 8.707031 5.433594 16.167969 13.085937 19.171875v21.339844h-9.667968l-24.6875-24.6875v-11.898438c7.65625-3.003906 13.085937-10.464844 13.085937-19.171875 0-11.351562-9.234375-20.585937-20.585937-20.585937-11.347656 0-20.585938 9.234375-20.585938 20.585937 0 8.707031 5.433594 16.167969 13.085938 19.171875v18.113282l18.476562 18.472656h-18.160156v15h140.59375v-15h-45.667969zm-7.5-42.871094c3.078124 0 5.585937 2.503906 5.585937 5.585937 0 3.078125-2.507813 5.585938-5.585937 5.585938-3.082032 0-5.589844-2.503907-5.589844-5.585938s2.507812-5.585937 5.589844-5.585937zm-49.359376 15.246094c3.082032 0 5.589844 2.507812 5.589844 5.585937 0 3.082031-2.507812 5.585937-5.589844 5.585937-3.078124 0-5.585937-2.503906-5.585937-5.585937 0-3.078125 2.507813-5.585937 5.585937-5.585937zm-49.355468-15.246094c3.082031 0 5.585937 2.503906 5.585937 5.585937 0 3.078125-2.503906 5.585938-5.585937 5.585938-3.078125 0-5.585938-2.503907-5.585938-5.585938s2.507813-5.585937 5.585938-5.585937zm0 0"/><path d="m409.902344 154.589844v7.5h47.6875v-7.5c0-85.242188-69.347656-154.589844-154.589844-154.589844h-7.5v47.6875h7.5c58.945312 0 106.902344 47.957031 106.902344 106.902344zm-99.402344-139.390625c71.007812 3.78125 128.109375 60.882812 131.890625 131.890625h-17.714844c-3.738281-61.253906-52.917969-110.4375-114.175781-114.175782zm0 0"/><path d="m344.527344 154.589844v7.5h47.691406v-7.5c0-49.195313-40.023438-89.214844-89.21875-89.214844h-7.5v47.6875h7.5c22.898438-.003906 41.527344 18.628906 41.527344 41.527344zm-34.027344-73.839844c34.949219 3.523438 62.816406 31.390625 66.339844 66.339844h-17.804688c-3.355468-25.183594-23.351562-45.183594-48.535156-48.535156zm0 0"/><path d="m303 178.433594c13.148438 0 23.84375-10.695313 23.84375-23.84375 0-13.148438-10.695312-23.84375-23.84375-23.84375s-23.84375 10.695312-23.84375 23.84375c0 13.148437 10.695312 23.84375 23.84375 23.84375zm0-32.6875c4.875 0 8.84375 3.96875 8.84375 8.84375s-3.96875 8.84375-8.84375 8.84375-8.84375-3.96875-8.84375-8.84375 3.96875-8.84375 8.84375-8.84375zm0 0"/><path d="m465.933594 262.472656h-99.777344l-90.167969-85.382812h-167.683593l-108.304688 89.347656v92.820312l25.644531 25.644532h8.929688v-15h-2.71875l-16.855469-16.855469v-3.371094h28v-52.082031h-28v-24.085938l98.695312-81.417968h156.316407l90.171875 85.382812h99.539062l6.453125 6.453125h-24.675781v25.441407l16.894531 16.894531h38.605469v26.785156l-16.855469 16.855469h-8.125v15h14.335938l25.644531-25.644532v-50.722656zm-437.933594 50.121094v22.082031h-13v-22.082031zm428.5-9.4375v-4.226562h24.675781l10.609375 10.605468 1.726563 1.726563h-28.90625zm0 0"/><path d="m423 302.648438h-55v-15h55zm-65 0h-15v-15h15zm-25 0h-15v-15h15zm0 0" fill="#fff"/><path d="m230 237.648438h34.234375v15h-34.234375zm0 0" fill="#fff"/></svg>